<?xml version="1.0" standalone="no"?>
<!DOCTYPE svg PUBLIC "-//W3C//DTD SVG 1.1//EN" "http://www.w3.org/Graphics/SVG/1.1/DTD/svg11.dtd" >
<svg xmlns="http://www.w3.org/2000/svg">
<metadata></metadata>
<defs>
<font id="chicagobold" horiz-adv-x="1366" >
<font-face units-per-em="2048" ascent="1638" descent="-410" />
<missing-glyph horiz-adv-x="681" />
<glyph horiz-adv-x="2048" />
<glyph horiz-adv-x="2048" />
<glyph unicode="&#xd;" horiz-adv-x="681" />
<glyph unicode=" "  horiz-adv-x="681" />
<glyph unicode="&#x09;" horiz-adv-x="681" />
<glyph unicode="&#xa0;" horiz-adv-x="681" />
<glyph unicode="!" horiz-adv-x="1024" d="M342 0v379h340v-379h-340zM342 496v1040h340v-1040h-340z" />
<glyph unicode="&#x22;" horiz-adv-x="1193" d="M342 1024v512h201v-512h-201zM651 1024v512h203v-512h-203z" />
<glyph unicode="#" horiz-adv-x="1705" d="M170 500v215h293l72 278h-199v215h252l82 328h215l-82 -328h278l82 328h215l-82 -328h240v-215h-293l-69 -278h198v-215h-254l-82 -330h-215l84 330h-280l-82 -330h-215l84 330h-242zM680 715h276l72 278h-278z" />
<glyph unicode="$" horiz-adv-x="1193" d="M170 377h211l-2 -53q-2 -88 115 -109v418l-222 215q-102 98 -102 252v84q0 305 324 354v168h208v-166q301 -14 324 -381h-207q-20 152 -117 164v-420l220 -215q102 -98 102 -252v-84q0 -305 -322 -354v-168h-208v168q-324 39 -324 379zM442 1194q0 -47 52 -111v224 q-51 -37 -52 -113zM702 229q51 37 52 113q-1 47 -52 113v-226z" />
<glyph unicode="%" horiz-adv-x="1878" d="M170 1180q0 147 104.5 251.5t251.5 104.5t251 -104.5t104 -251.5q0 -145 -105 -250t-250 -105q-147 0 -251.5 104.5t-104.5 250.5zM385 1180q0 -57 42 -98.5t99 -41.5t98.5 41t41.5 99q0 59 -41.5 100t-98.5 41q-59 0 -100 -41t-41 -100zM401 0l744 1321h-314v215h646 l-854 -1536h-222zM997 354q0 147 104.5 252t250.5 105q147 0 250.5 -104.5t103.5 -252.5q0 -145 -103.5 -249.5t-250.5 -104.5t-251 103.5t-104 250.5zM1212 354q0 -57 41 -98t99 -41q57 0 98 41t41 98t-41 99.5t-98 42.5t-98.5 -41t-41.5 -101z" />
<glyph unicode="&#x26;" horiz-adv-x="1705" d="M170 354v166q0 104 63.5 202.5t159.5 131.5q-223 80 -223 328q0 145 104.5 249.5t249.5 104.5h330q145 0 249.5 -104.5t104.5 -249.5v-191h-379v191q0 57 -40.5 98t-98.5 41q-59 0 -100 -41t-41 -98v-84q0 -123 166 -142v-211q-166 -20 -166 -143v-248q0 -139 141 -139 q139 0 139 139v357h353q59 0 100 40t41 99v190h213v-190q0 -141 -94.5 -245.5t-233.5 -108.5v-142q0 -135 -109.5 -244.5t-244.5 -109.5h-330q-135 0 -244.5 109.5t-109.5 244.5z" />
<glyph unicode="'" horiz-adv-x="512" d="M170 1024v512h172v-512h-172z" />
<glyph unicode="(" horiz-adv-x="854" d="M170 420v696q0 227 123 400q135 190 354 190h35v-213q-154 -18 -154 -143v-1164q0 -125 154 -143v-213h-35q-219 0 -354 190q-123 172 -123 400z" />
<glyph unicode=")" horiz-adv-x="854" d="M170 43q156 18 156 143v1164q0 125 -156 143v213h37q219 0 354 -190q121 -172 121 -400v-696q0 -227 -121 -400q-135 -190 -354 -190h-37v213z" />
<glyph unicode="*" horiz-adv-x="1193" d="M152 887l237 137l-237 137l104 180l238 -135v273h208v-273l236 135l104 -180l-235 -137l235 -137l-104 -180l-236 135v-273h-208v273l-238 -135z" />
<glyph unicode="+" horiz-adv-x="1193" d="M170 494v208h324v322h208v-322h322v-208h-322v-324h-208v324h-324z" />
<glyph unicode="," horiz-adv-x="681" d="M170 -25v367h342v-342q0 -303 -342 -344v209q133 4 147 110h-147z" />
<glyph unicode="-" horiz-adv-x="1193" d="M170 512v170h854v-170h-854z" />
<glyph unicode="." horiz-adv-x="681" d="M170 0v342h342v-342h-342z" />
<glyph unicode="/" horiz-adv-x="1193" d="M160 0l663 1706h213l-663 -1706h-213z" />
<glyph unicode="0" d="M170 354v828q0 145 103.5 249.5t246.5 104.5h326q143 0 245.5 -104.5t102.5 -249.5v-828q0 -145 -101.5 -249.5t-246.5 -104.5h-326q-143 0 -246.5 104.5t-103.5 249.5zM545 715l272 497q-31 109 -135 109q-55 0 -96 -41t-41 -98v-467zM549 324q25 -109 133 -109 q57 0 98 41t41 98v467z" />
<glyph unicode="1" d="M342 1157v205l328 174h184v-1536h-358v1157h-154z" />
<glyph unicode="2" d="M168 1157q43 379 352 379h326q143 0 245.5 -104.5t102.5 -249.5v-84q0 -129 -164 -307q-154 -150 -307 -299q-170 -171 -178 -277h649v-215h-1024v190q0 131 170 312q156 152 313 305q168 174 168 291v84q0 57 -41 98t-98 41h-162q-127 0 -139 -164h-213z" />
<glyph unicode="3" d="M168 379h213q12 -164 139 -164h162q57 0 98 41t41 98v332q0 31 -37 88q-33 51 -102 51h-348v203l432 293h-596v215h1026l-2 -203l-430 -293h82q137 0 242.5 -108.5t105.5 -245.5v-332q0 -145 -101.5 -249.5t-246.5 -104.5h-326q-309 0 -352 379z" />
<glyph unicode="4" d="M0 496v198l668 842h362v-825h164v-215h-164v-496h-375v496h-655zM240 711h415v524z" />
<glyph unicode="5" d="M168 379h213q12 -164 139 -164h162q57 0 98 41t41 98v332q0 57 -41 98t-98 41h-512v711h1026l-2 -215h-649v-281h301q143 0 245.5 -104.5t102.5 -249.5v-332q0 -145 -101.5 -249.5t-246.5 -104.5h-326q-309 0 -352 379z" />
<glyph unicode="6" d="M170 354v580q0 248 175 425t419 177h268v-215h-186q-125 0 -213 -89t-88 -216v-33q49 57 137 57h164q143 0 245.5 -104.5t102.5 -249.5v-332q0 -145 -101.5 -249.5t-246.5 -104.5h-326q-143 0 -246.5 104.5t-103.5 249.5zM545 354q0 -57 41 -98t96 -41q57 0 98 41t41 98 v332q0 57 -41 98t-98 41q-55 0 -96 -41t-41 -98v-332z" />
<glyph unicode="7" d="M170 1321v215h1024v-360l-84 -170q-113 -227 -152 -322q-90 -213 -90 -330v-354h-372v354q0 168 166 508l159 326v133h-651z" />
<glyph unicode="8" d="M170 354v84q0 106 61.5 203.5t157.5 130.5q-219 80 -219 326v84q0 145 103.5 249.5t246.5 104.5h326q143 0 245.5 -104.5t102.5 -249.5v-84q0 -248 -217 -326q96 -35 156.5 -131t60.5 -203v-84q0 -135 -106.5 -244.5t-241.5 -109.5h-326q-135 0 -242.5 109.5 t-107.5 244.5zM545 354q0 -57 41 -98t96 -41q57 0 98 41t41 98v166q0 141 -139 142q-137 0 -137 -142v-166zM545 1016q0 -57 41 -99.5t96 -42.5q57 0 98 42t41 100v166q0 57 -41 98t-98 41q-55 0 -96 -41t-41 -98v-166z" />
<glyph unicode="9" d="M170 850v332q0 145 103.5 249.5t246.5 104.5h326q143 0 245.5 -104.5t102.5 -249.5v-580q0 -248 -173 -425t-419 -177h-268v215h186q125 0 213 89t88 216v33q-49 -57 -139 -57h-162q-143 0 -246.5 104.5t-103.5 249.5zM545 850q0 -57 41 -98t96 -41q57 0 98 41t41 98v332 q0 57 -41 98t-98 41q-55 0 -96 -41t-41 -98v-332z" />
<glyph unicode=":" horiz-adv-x="681" d="M170 0v377h342v-377h-342zM170 817v377h342v-377h-342z" />
<glyph unicode=";" horiz-adv-x="681" d="M170 -10v379h342v-355q0 -315 -342 -358v217q133 4 147 117h-147zM170 815v379h342v-379h-342z" />
<glyph unicode="&#x3c;" horiz-adv-x="1024" d="M20 768l676 598h318l-676 -598l676 -598h-318z" />
<glyph unicode="=" d="M170 342v201h1024v-201h-1024zM170 651v203h1024v-203h-1024z" />
<glyph unicode="&#x3e;" horiz-adv-x="1024" d="M10 170l676 598l-676 598h318l676 -598l-676 -598h-318z" />
<glyph unicode="?" d="M168 1157q43 379 352 379h326q143 0 245.5 -104.5t102.5 -249.5q0 -234 -199 -322q-88 -37 -107.5 -62.5t-19.5 -111.5v-190h-372v190q0 221 249 371q76 47 76 125q0 57 -41 98t-98 41h-162q-127 0 -141 -164h-211zM496 0v379h372v-379h-372z" />
<glyph unicode="@" horiz-adv-x="1878" d="M170 602v332q0 248 177 425t427 177h330q248 0 425 -177t177 -425v-414q0 -80 -55 -135t-133 -55h-332q-119 0 -166 98q-51 -98 -193 -98q-131 0 -228 111.5t-97 244.5v164q0 147 104.5 251.5t249.5 104.5h356v-604q0 -57 58 -57h164q57 0 57 57v332q0 160 -113.5 273.5 t-273.5 113.5h-330q-162 0 -275.5 -113.5t-113.5 -273.5v-332q0 -160 114.5 -273.5t274.5 -113.5h602v-215h-602q-248 0 -426 177t-178 425zM717 686q0 -59 41 -100t98 -41q59 0 100 42t41 99v305h-141q-57 0 -98 -42t-41 -99v-164z" />
<glyph unicode="A" d="M170 0v1182q0 145 103.5 249.5t246.5 104.5h326q143 0 245.5 -104.5t102.5 -249.5v-1182h-373v662h-276v-662h-375zM545 874h276v308q0 57 -41 98t-98 41q-55 0 -96 -41t-41 -98v-308z" />
<glyph unicode="B" d="M170 0v1536h676q143 0 245.5 -104.5t102.5 -249.5v-84q0 -246 -215 -326q100 -33 157.5 -127t57.5 -207v-84q0 -143 -101.5 -248.5t-246.5 -105.5h-676zM545 215h137q57 0 98 41t41 98v166q0 141 -139 142h-137v-447zM545 874h137q57 0 98 42t41 100v166q0 57 -41 98 t-98 41h-137v-447z" />
<glyph unicode="C" d="M170 354v828q0 147 102.5 250.5t247.5 103.5h326q330 0 350 -379h-211q-18 164 -139 164h-164q-55 0 -96 -41t-41 -98v-828q0 -57 41 -98t96 -41h164q123 0 139 164h211q-22 -379 -350 -379h-326q-143 0 -246.5 104.5t-103.5 249.5z" />
<glyph unicode="D" d="M170 0v1536h676q143 0 245.5 -104.5t102.5 -249.5v-828q0 -145 -101.5 -249.5t-246.5 -104.5h-676zM545 215h137q57 0 98 41t41 98v828q0 57 -41 98t-98 41h-137v-1106z" />
<glyph unicode="E" horiz-adv-x="1193" d="M170 0v1536h854v-215h-483v-447h323v-212h-323v-447h483v-215h-854z" />
<glyph unicode="F" horiz-adv-x="1193" d="M170 0v1536h854v-215h-483v-447h323v-212h-323v-662h-371z" />
<glyph unicode="G" d="M170 354v828q0 147 102.5 250.5t247.5 103.5h326q330 0 350 -379h-211q-18 164 -139 164h-164q-55 0 -96 -41t-41 -98v-828q0 -63 44 -102t101 -39q55 0 93 37t38 104v308h-162v212h535v-520q0 -152 -98 -253t-250 -101h-326q-143 0 -246.5 104.5t-103.5 249.5z" />
<glyph unicode="H" d="M170 0v1536h375v-662h276v662h373v-1536h-373v662h-276v-662h-375z" />
<glyph unicode="I" horiz-adv-x="1024" d="M342 0v1536h340v-1536h-340z" />
<glyph unicode="J" horiz-adv-x="1193" d="M0 354v357h373v-357q0 -57 41 -98t98 -41t98 41t41 98v1182h373v-1182q0 -174 -88 -264t-260 -90h-328q-348 0 -348 354z" />
<glyph unicode="K" horiz-adv-x="1536" d="M170 0v1536h377v-565l493 565h357l-678 -768l678 -768h-396l-454 537v-537h-377z" />
<glyph unicode="L" horiz-adv-x="1193" d="M170 0v1536h371v-1321h483v-215h-854z" />
<glyph unicode="M" horiz-adv-x="2048" d="M170 0v1536h113l696 -694l698 694h201v-1536h-381v874l-557 -555l-553 553v-872h-217z" />
<glyph unicode="N" horiz-adv-x="1536" d="M170 0v1536h111l872 -795v795h213v-1536h-109l-872 795v-795h-215z" />
<glyph unicode="O" d="M170 354v828q0 145 103.5 249.5t246.5 104.5h326q143 0 245.5 -104.5t102.5 -249.5v-828q0 -145 -101.5 -249.5t-246.5 -104.5h-326q-143 0 -246.5 104.5t-103.5 249.5zM545 354q0 -57 41 -98t96 -41q57 0 98 41t41 98v828q0 57 -41 98t-98 41q-55 0 -96 -41t-41 -98 v-828z" />
<glyph unicode="P" d="M170 0v1536h676q143 0 245.5 -104.5t102.5 -249.5v-166q0 -145 -101.5 -249.5t-246.5 -104.5h-301v-662h-375zM545 874h137q57 0 98 42t41 100v166q0 57 -41 98t-98 41h-137v-447z" />
<glyph unicode="Q" d="M170 350v830q0 147 103.5 251.5t246.5 104.5h326q143 0 245.5 -104.5t102.5 -251.5v-830q0 -219 -170 -305h170v-215h-266q-156 0 -185 166h-223q-143 0 -246.5 104.5t-103.5 249.5zM545 350q0 -57 41 -98t96 -41q57 0 98 41t41 98v830q0 59 -41 100t-98 41 q-55 0 -96 -41t-41 -100v-830z" />
<glyph unicode="R" d="M170 0v1536h676q143 0 245.5 -104.5t102.5 -249.5v-90q0 -84 -39 -166q-43 -88 -113 -129q66 -12 109 -65.5t43 -121.5v-610h-373v520q0 57 -41 99.5t-98 42.5h-137v-662h-375zM545 874h137q57 0 98 42t41 100v166q0 57 -41 98t-98 41h-137v-447z" />
<glyph unicode="S" horiz-adv-x="1193" d="M170 379h213q-4 -43 -4 -51q0 -53 45 -86q37 -27 92 -27q137 0 137 141q0 53 -41 101l-340 391q-102 115 -102 250v84q0 145 102.5 249.5t243.5 104.5h162q326 0 348 -379h-207q-23 164 -131 164q-147 0 -147 -141q0 -51 41 -99l342 -393q100 -117 100 -250v-84 q0 -145 -100.5 -249.5t-245.5 -104.5h-162q-346 0 -346 379z" />
<glyph unicode="T" horiz-adv-x="1024" d="M0 1321v215h1024v-215h-326v-1321h-372v1321h-326z" />
<glyph unicode="U" d="M170 354v1182h375v-1182q0 -57 41 -98t96 -41q57 0 98 41t41 98v1182h373v-1182q0 -145 -101.5 -249.5t-246.5 -104.5h-326q-143 0 -246.5 104.5t-103.5 249.5z" />
<glyph unicode="V" d="M170 0v1536h375v-1321h137q57 0 98 41t41 98v1182h373v-946q0 -242 -169 -416t-411 -174h-444z" />
<glyph unicode="W" horiz-adv-x="2048" d="M170 0v1536h381v-1321h141q59 0 100.5 41t41.5 98v1182h380v-1321h142q57 0 99 41t42 98v1182h381v-946q0 -244 -174 -417t-418 -173h-452v37q-88 -37 -209 -37h-455z" />
<glyph unicode="X" d="M170 0v438q0 254 231 330q-231 76 -231 330v438h375v-520q0 -57 41 -99.5t96 -42.5q57 0 98 42t41 100v520h373v-438q0 -254 -231 -330q231 -78 231 -332v-436h-373v520q0 57 -41 99.5t-98 42.5q-55 0 -96 -42t-41 -100v-520h-375z" />
<glyph unicode="Y" d="M170 1016v520h375v-520q0 -57 41 -99.5t96 -42.5q57 0 98 42t41 100v520h373v-520q0 -303 -324 -352v-664h-374v664q-326 49 -326 352z" />
<glyph unicode="Z" d="M170 0v197l633 1124h-633v215h1024v-197l-633 -1124h633v-215h-1024z" />
<glyph unicode="[" horiz-adv-x="854" d="M170 -170v1876h512v-215h-154v-1446h154v-215h-512z" />
<glyph unicode="\" horiz-adv-x="1193" d="M160 1706h213l663 -1706h-215z" />
<glyph unicode="]" horiz-adv-x="854" d="M170 45h156v1446h-156v215h512v-1876h-512v215z" />
<glyph unicode="^" d="M137 1024l545 522l547 -522h-230l-315 301l-315 -301h-232z" />
<glyph unicode="_" d="M0 0h1364v-170h-1364v170z" />
<glyph unicode="`" horiz-adv-x="1024" d="M328 1706h198l170 -340h-198z" />
<glyph unicode="a" d="M168 817q43 377 352 377h326q143 0 245.5 -103.5t102.5 -248.5v-842h-373v57q-49 -57 -139 -57h-162q-143 0 -246.5 103.5t-103.5 248.5t103.5 249t246.5 104h301v137q0 57 -41 98t-98 41h-162q-123 0 -139 -164h-213zM545 352q0 -57 40 -98t97 -41t98 41t41 98v140h-139 q-55 0 -96 -41t-41 -99z" />
<glyph unicode="b" d="M170 0v1536h375v-387q49 57 137 57h164q143 0 245.5 -104.5t102.5 -251.5v-496q0 -145 -101.5 -249.5t-246.5 -104.5h-676zM545 215h137q57 0 98 41t41 98v496q0 57 -41 99t-98 42q-55 0 -96 -42t-41 -99v-635z" />
<glyph unicode="c" horiz-adv-x="1193" d="M170 352v490q0 145 102.5 248.5t243.5 103.5h162q328 0 348 -377h-209q-18 164 -139 164q-55 0 -96 -41t-41 -98v-490q0 -57 41 -98t96 -41q121 0 139 164h209q-22 -377 -348 -377h-162q-141 0 -243.5 103.5t-102.5 248.5z" />
<glyph unicode="d" d="M170 354v496q0 147 103.5 251.5t246.5 104.5h301v330h373v-1536h-373v57q-49 -57 -139 -57h-162q-143 0 -246.5 104.5t-103.5 249.5zM545 354q0 -57 41 -98t96 -41q57 0 98 41t41 98v637h-139q-55 0 -96 -42t-41 -99v-496z" />
<glyph unicode="e" d="M170 352v490q0 145 103.5 248.5t246.5 103.5h326q143 0 245.5 -103.5t102.5 -248.5v-350h-649v-140q0 -57 41 -98t96 -41h164q137 0 137 164h215q-43 -377 -352 -377h-326q-143 0 -246.5 103.5t-103.5 248.5zM545 705h276v137q0 57 -41 98t-98 41q-55 0 -96 -41t-41 -98 v-137z" />
<glyph unicode="f" horiz-adv-x="1024" d="M170 991v215h162q4 137 101 233.5t231 96.5h360v-215h-199q-49 0 -83.5 -34t-39.5 -81h162v-215h-162v-991h-370v991h-162z" />
<glyph unicode="g" d="M168 -131h213q12 -166 139 -166h162q57 0 98 41t41 100v199q-49 -57 -139 -57h-162q-143 0 -246.5 104.5t-103.5 251.5v496q0 147 103.5 251.5t246.5 104.5h674v-1350q0 -145 -101.5 -250.5t-246.5 -105.5h-326q-309 0 -352 381zM545 342q0 -59 41 -100t96 -41 q57 0 98 41t41 100v637h-139q-55 0 -96 -41t-41 -100v-496z" />
<glyph unicode="h" d="M170 0v1536h375v-387q49 57 137 57h164q143 0 245.5 -104.5t102.5 -251.5v-850h-373v850q0 57 -41 99t-98 42q-55 0 -96 -42t-41 -99v-850h-375z" />
<glyph unicode="i" horiz-adv-x="681" d="M170 0v1206h342v-1206h-342zM170 1321v215h342v-215h-342z" />
<glyph unicode="j" horiz-adv-x="1024" d="M-2 41h209q14 -166 139 -166q55 0 96 41t41 100v1188h371v-1188q0 -145 -101.5 -251.5t-244.5 -106.5h-162q-307 0 -348 383zM483 1319v217h371v-217h-371z" />
<glyph unicode="k" d="M170 0v1536h377v-715l459 385h403l-715 -604l715 -602h-403l-459 385v-385h-377z" />
<glyph unicode="l" horiz-adv-x="681" d="M170 0v1536h342v-1536h-342z" />
<glyph unicode="m" horiz-adv-x="2048" d="M170 0v1194h381v-57q51 57 141 57h166q162 0 250 -98q84 98 248 98h166q147 0 251.5 -102.5t104.5 -249.5v-842h-381v842q0 57 -42 98t-99 41t-99.5 -41t-42.5 -98v-842h-380v842q0 57 -41 98t-101 41q-57 0 -99 -41t-42 -98v-842h-381z" />
<glyph unicode="n" d="M170 0v1194h375v-57q49 57 137 57h164q143 0 245.5 -103.5t102.5 -248.5v-842h-373v842q0 57 -41 98t-98 41q-55 0 -96 -41t-41 -98v-842h-375z" />
<glyph unicode="o" d="M170 352v490q0 145 103.5 248.5t246.5 103.5h326q143 0 245.5 -103.5t102.5 -248.5v-490q0 -145 -102.5 -248.5t-245.5 -103.5h-326q-143 0 -246.5 103.5t-103.5 248.5zM545 352q0 -57 41 -98t96 -41q57 0 98 41t41 98v490q0 57 -41 98t-98 41q-55 0 -96 -41t-41 -98 v-490z" />
<glyph unicode="p" d="M170 -342v1536h375v-47q47 47 137 47h164q143 0 245.5 -104.5t102.5 -249.5v-496q0 -147 -102.5 -250.5t-245.5 -103.5h-301v-332h-375zM545 205h137q57 0 98 41t41 98v496q0 59 -42 99t-97 40q-57 0 -97 -41t-40 -98v-635z" />
<glyph unicode="q" d="M170 344v496q0 147 103.5 250.5t246.5 103.5h674v-1536h-373v389q-49 -57 -139 -57h-162q-143 0 -246.5 104.5t-103.5 249.5zM545 344q0 -57 41 -98t96 -41q57 0 98 41t41 98v635h-139q-55 0 -96 -40t-41 -99v-496z" />
<glyph unicode="r" horiz-adv-x="1024" d="M170 0v1194h371v-172q86 172 299 172h184v-377h-346q-55 0 -96 -40t-41 -97v-680h-371z" />
<glyph unicode="s" horiz-adv-x="1193" d="M170 377h209q18 -164 129 -164q147 0 147 113q0 43 -206 163q-219 129 -246 197q-33 74 -33 154q0 147 101.5 250.5t244.5 103.5h162q326 0 348 -377h-207q-23 164 -131 164q-147 0 -147 -111q0 -45 204 -165q219 -127 248 -195q31 -74 31 -156q0 -145 -100.5 -249.5 t-245.5 -104.5h-162q-346 0 -346 377z" />
<glyph unicode="t" horiz-adv-x="1024" d="M170 991v215h160v330h364v-330h160v-215h-160v-637q0 -51 35 -95t86 -44h39v-215h-182q-141 0 -241.5 103.5t-100.5 250.5v637h-160z" />
<glyph unicode="u" d="M170 352v842h375v-842q0 -57 41 -98t96 -41q57 0 98 41t41 98v842h373v-1194h-373v57q-49 -57 -139 -57h-162q-143 0 -246.5 103.5t-103.5 248.5z" />
<glyph unicode="v" d="M170 0v1194h375v-981h137q57 0 98 41t41 98v842h373v-610q0 -240 -169 -412t-411 -172h-444z" />
<glyph unicode="w" horiz-adv-x="2048" d="M170 0v1194h381v-981h141q59 0 100.5 41t41.5 98v842h380v-981h142q57 0 99 41t42 98v842h381v-610q0 -242 -174 -413t-418 -171h-452v37q-88 -37 -209 -37h-455z" />
<glyph unicode="x" d="M170 0v270q0 252 231 328q-231 74 -231 328v268h375v-352q0 -57 41 -97t96 -40q57 0 98 39.5t41 97.5v352h373v-268q0 -254 -229 -328q229 -76 229 -328v-270h-373v352q0 57 -41 98.5t-98 41.5q-55 0 -96 -41t-41 -99v-352h-375z" />
<glyph unicode="y" d="M168 -131h213q12 -166 139 -166h162q57 0 98 41t41 100v199q-49 -57 -139 -57h-162q-143 0 -246.5 104.5t-103.5 251.5v852h375v-852q0 -59 41 -100t96 -41q57 0 98 41t41 100v852h373v-1350q0 -145 -101.5 -250.5t-246.5 -105.5h-326q-309 0 -352 381z" />
<glyph unicode="z" d="M170 0v197l625 784h-625v213h1024v-197l-623 -784h623v-213h-1024z" />
<glyph unicode="{" horiz-adv-x="854" d="M170 659v218h39q117 0 117 141v332q0 315 356 360v-217q-154 -14 -154 -143v-332q0 -143 -96 -250q96 -106 96 -250v-332q0 -131 154 -143v-217q-356 43 -356 360v332q0 141 -117 141h-39z" />
<glyph unicode="|" horiz-adv-x="854" d="M342 -170v1876h170v-1876h-170z" />
<glyph unicode="}" horiz-adv-x="854" d="M170 43q156 14 156 143v332q0 143 96 250q-96 106 -96 250v332q0 131 -156 143v217q358 -43 358 -360v-332q0 -141 117 -141h37v-218h-37q-117 0 -117 -141v-332q0 -315 -358 -360v217z" />
<glyph unicode="~" d="M168 854q43 340 352 340q90 0 192.5 -73.5t133.5 -73.5q121 0 139 147h213q-43 -340 -352 -340q-92 0 -192.5 73.5t-133.5 73.5q-121 0 -139 -147h-213z" />
<glyph horiz-adv-x="1024" d="M322 272h198l172 -342h-198z" />
<glyph horiz-adv-x="1024" d="M170 -125h39q45 0 88 39q33 37 33 102v805h-160v217h160v142q0 147 100 251.5t242 104.5h182v-217h-39q-121 0 -121 -139v-142h160v-217h-162l2 -805q0 -147 -99 -252.5t-241 -105.5h-184v217z" />
<glyph horiz-adv-x="1024" d="M182 268h211l180 -342h-208zM401 272h211l181 -342h-209z" />
<glyph unicode="&#x85;" horiz-adv-x="1714" d="M170 0v342h379v-342h-379zM641 0v342h377v-342h-377zM1124 0v342h377v-342h-377z" />
<glyph horiz-adv-x="1024" d="M170 991v215h160v330h364v-330h160v-215h-160v-991h-364v991h-160z" />
<glyph horiz-adv-x="1024" d="M170 694v213h160v84h-160v215h160v330h364v-330h160v-215h-160v-84h160v-213h-160v-694h-364v694h-160z" />
<glyph d="M238 1294l450 426l451 -426h-199l-252 238l-250 -238h-200z" />
<glyph horiz-adv-x="1193" d="M170 383h213q-4 -43 -4 -53q0 -53 45 -86q39 -27 94 -27q137 0 137 143q0 51 -41 101l-342 395q-102 115 -102 252v82q0 150 102.5 254t245.5 104h160q326 0 348 -383h-207q-20 168 -131 168q-147 0 -147 -143q0 -53 41 -100l342 -396q100 -117 100 -252v-84 q0 -147 -100.5 -252.5t-245.5 -105.5h-160q-348 0 -348 383zM172 2054h199l252 -260l251 260h201l-452 -467z" />
<glyph horiz-adv-x="1064" d="M223 598l608 631v-234l-382 -399l382 -397v-234z" />
<glyph horiz-adv-x="1878" d="M170 354v828q0 145 104.5 249.5t251.5 104.5h1180v-215h-494v-447h330v-212h-330v-447h494v-215h-1180q-147 0 -251.5 104.5t-104.5 249.5zM551 354q0 -57 41 -98t100 -41q57 0 98 41t41 98v828q0 57 -40.5 98t-98.5 41q-59 0 -100 -41t-41 -98v-828z" />
<glyph horiz-adv-x="1024" d="M328 1706h198l170 -340h-198z" />
<glyph horiz-adv-x="1024" d="M328 1366l170 340h198l-170 -340h-198z" />
<glyph horiz-adv-x="1024" d="M197 1708h211l180 -342h-209zM416 1712h211l180 -342h-209z" />
<glyph horiz-adv-x="1024" d="M197 1370l182 342h209l-180 -342h-211zM416 1366l182 342h209l-180 -342h-211z" />
<glyph d="M500 768v342h342v-342h-342z" />
<glyph horiz-adv-x="1361" d="M0 694v170h1362v-170h-1362z" />
<glyph horiz-adv-x="2048" d="M0 694v170h2048v-170h-2048z" />
<glyph d="M285 1292q37 274 284 275q72 0 154 -57.5t104 -57.5q90 0 107 115h176q-35 -275 -283 -275q-76 0 -155.5 58.5t-102.5 58.5q-92 0 -106 -117h-178z" />
<glyph horiz-adv-x="1193" d="M170 381h209q18 -166 129 -166q147 0 147 113q0 47 -204 168q-219 131 -250 201.5t-31 152.5q0 150 101.5 255t246.5 105h162q326 0 348 -383h-209q-20 166 -131 166q-147 0 -147 -112q0 -45 207 -166q219 -131 247 -199q31 -74 31 -158q0 -147 -100.5 -252.5 t-245.5 -105.5h-162q-348 0 -348 381zM190 1688h199l252 -258l252 258h201l-453 -463z" />
<glyph horiz-adv-x="1064" d="M233 -35v234l383 397l-383 399v234l609 -631z" />
<glyph horiz-adv-x="2048" d="M170 352v490q0 145 104.5 248.5t251.5 103.5h332q82 0 166 -41q84 41 166 41h332q147 0 251.5 -103.5t104.5 -248.5v-350h-664v-140q0 -57 42 -98t100 -41h166q141 0 141 164h217q-43 -377 -358 -377h-332q-82 0 -166 41q-84 -41 -166 -41h-332q-147 0 -251.5 103.5 t-104.5 248.5zM551 352q0 -57 42 -98t99 -41q59 0 100.5 41t41.5 98v490q0 57 -41 98t-101 41q-57 0 -99 -41t-42 -98v-490zM1214 705h283v137q0 57 -42 98t-99 41t-99.5 -41t-42.5 -98v-137z" />
<glyph d="M170 1022v524h375v-524q0 -57 41 -99t96 -42q57 0 98 42t41 99v524h373v-524q0 -305 -324 -354v-668h-374v668q-326 49 -326 354zM334 1661v256h239v-256h-239zM793 1661v256h239v-256h-239z" />
<glyph unicode="&#xa1;" horiz-adv-x="1024" d="M342 0v1040h340v-1040h-340zM342 1157v379h340v-379h-340z" />
<glyph unicode="&#xa2;" horiz-adv-x="1193" d="M170 860v328q0 303 324 352v166h208v-166q303 -31 324 -377h-209q-14 137 -115 160v-598q100 23 115 160h209q-21 -334 -324 -377v-166h-208v166q-324 49 -324 352zM381 860q0 -113 113 -135v598q-113 -23 -113 -135v-328z" />
<glyph unicode="&#xa3;" horiz-adv-x="1536" d="M170 0v215h166v447h-166v212h166v308q0 145 103.5 249.5t246.5 104.5h164q311 0 354 -381h-213q-12 166 -133 166q-147 0 -147 -139v-308h163v-212h-163v-447h303q129 0 141 164h213q-43 -379 -354 -379h-844z" />
<glyph unicode="&#xa4;" d="M162 481l211 211q-39 86 -39 162q0 80 39 160l-211 211l149 149l211 -211q82 39 160 39q80 0 162 -39l211 211l149 -149l-211 -211q39 -82 39 -160q0 -80 -39 -162l211 -211l-149 -149l-211 211q-82 -39 -162 -39t-160 41l-211 -213zM545 854q0 -57 41 -98t96 -41 q57 0 98 41t41 98t-40 97t-99 40q-55 0 -96 -41t-41 -96z" />
<glyph unicode="&#xa5;" d="M170 330v215h326v117h-326v212h172q-172 88 -172 308v354h375v-354q0 -59 40 -100.5t97 -41.5q59 0 99 41t40 101v354h373v-354q0 -219 -170 -308h170v-212h-324v-117h324v-215h-324v-330h-374v330h-326z" />
<glyph unicode="&#xa6;" horiz-adv-x="854" d="M342 -170v881h170v-881h-170zM342 825v881h170v-881h-170z" />
<glyph unicode="&#xa7;" horiz-adv-x="1193" d="M170 -129h207q20 -166 139 -166h162q57 0 97 41t40 100q0 61 -39 99l-504 479q-102 98 -102 254q0 152 98 250q-98 98 -98 250q0 150 102.5 254t243.5 104h162q326 0 348 -383h-207q-23 166 -141 166h-162q-55 0 -95 -41t-40 -100q0 -61 39 -99l502 -479 q102 -98 102 -254q0 -148 -98 -250q98 -92 98 -250q0 -150 -101.5 -254t-244.5 -104h-162q-324 0 -346 383zM381 678q0 -61 39 -100l352 -334q43 49 43 102q0 61 -39 100l-352 334q-43 -47 -43 -102z" />
<glyph unicode="&#xa8;" horiz-adv-x="1024" d="M170 1366v211h236v-211h-236zM618 1366v211h236v-211h-236z" />
<glyph unicode="&#xa9;" horiz-adv-x="1705" d="M170 520v496q0 215 152.5 367.5t367.5 152.5h328q213 0 365.5 -152.5t152.5 -367.5v-496q0 -213 -152.5 -366.5t-365.5 -153.5h-328q-215 0 -367.5 152.5t-152.5 367.5zM385 520q0 -125 89 -215t216 -90h328q125 0 214 90t89 215v496q0 127 -89 216t-214 89h-328 q-127 0 -216 -89t-89 -216v-496zM500 686v164q0 152 106.5 254t257.5 102q324 0 344 -381h-211q-20 166 -143 166q-57 0 -98 -42t-41 -99v-164q0 -59 41 -100t98 -41q123 0 143 166h211q-22 -381 -352 -381q-147 0 -251.5 103.5t-104.5 252.5z" />
<glyph unicode="&#xaa;" horiz-adv-x="1193" d="M168 1204q35 332 295 332h268q123 0 208 -91t85 -216v-729h-315v43q-41 -43 -111 -43h-135q-121 0 -207 90t-86 215v49q0 125 86 216t207 91h246v68q0 117 -111 117h-109q-96 0 -110 -142h-211zM170 170v215h854v-215h-854zM487 831q0 -117 111 -116q111 0 111 114v117 h-111q-111 0 -111 -115z" />
<glyph unicode="&#xab;" horiz-adv-x="1536" d="M203 598l631 631v-234l-398 -399l398 -397v-234zM692 598l631 631v-234l-397 -399l397 -397v-234z" />
<glyph unicode="&#xac;" horiz-adv-x="1193" d="M170 481v201h854v-512h-209v311h-645z" />
<glyph unicode="&#xad;" horiz-adv-x="1193" d="M170 512v170h854v-170h-854z" />
<glyph unicode="&#xae;" horiz-adv-x="1705" d="M170 520v496q0 215 152.5 367.5t367.5 152.5h328q213 0 365.5 -152.5t152.5 -367.5v-496q0 -213 -152.5 -366.5t-365.5 -153.5h-328q-215 0 -367.5 152.5t-152.5 367.5zM385 520q0 -127 89 -216t216 -89h328q125 0 214 90t89 215v496q0 127 -89 216t-214 89h-328 q-127 0 -216 -89t-89 -216v-496zM500 330v876h518q78 0 134 -56t56 -134v-82q0 -113 -88 -162q88 -41 88 -162v-280h-215v190q0 57 -41 99.5t-98 42.5h-139v-332h-215zM715 874h221q57 0 57 60q0 57 -57 57h-221v-117z" />
<glyph unicode="&#xaf;" horiz-adv-x="1193" d="M170 1266v170h854v-170h-854z" />
<glyph unicode="&#xb0;" horiz-adv-x="1024" d="M170 1194q0 141 100.5 241.5t241.5 100.5t241.5 -100.5t100.5 -241.5t-100.5 -240.5t-241.5 -99.5t-241.5 100.5t-100.5 239.5zM377 1194q0 -55 40 -95t95 -40t95 40t40 95q0 57 -40 96t-95 39t-95 -39t-40 -96z" />
<glyph unicode="&#xb1;" horiz-adv-x="1193" d="M170 0v213h854v-213h-854zM170 655v211h324v328h208v-328h322v-211h-322v-327h-208v327h-324z" />
<glyph unicode="&#xb2;" horiz-adv-x="1193" d="M170 342v188q0 74 139 207q131 119 260 236q139 137 140 221v27q0 102 -111 102h-135q-100 0 -111 -127h-182q0 197 95 268.5t198 71.5h268q119 0 206 -81t87 -200v-61q0 -133 -287 -377q-86 -74 -135 -123q-97 -94 -113 -139h535v-213h-854z" />
<glyph unicode="&#xb3;" horiz-adv-x="1193" d="M170 682h209q10 -127 110 -127h109q111 0 111 102v154q0 23 -29 66q-27 37 -82 36h-186v201l274 209h-516v213h854v-201l-274 -209q106 -6 190 -89t84 -189v-227q0 -119 -87 -199t-206 -80h-268q-102 0 -195 68q-98 74 -98 272z" />
<glyph unicode="&#xb4;" horiz-adv-x="1024" d="M328 1366l170 340h198l-170 -340h-198z" />
<glyph unicode="&#xb5;" horiz-adv-x="1705" d="M182 -342l305 1536h379l-170 -856q-4 -16 -4 -27q0 -106 111 -106q145 0 174 143l166 846h381l-170 -856q-4 -10 -4 -27q0 -96 141 -110l-43 -211h-184q-121 0 -150 92q-63 -92 -180 -92h-164q-94 0 -133 57l-76 -389h-379z" />
<glyph unicode="&#xb6;" horiz-adv-x="1536" d="M86 1098q0 180 127 309t307 129h844v-1536h-213v1321h-115v-1321h-213v662h-303q-180 0 -307 128t-127 308zM545 874h278v447h-278v-447z" />
<glyph unicode="&#xb7;" d="M506 680v342h342v-342h-342z" />
<glyph unicode="&#xb8;" horiz-adv-x="1024" d="M369 -487l73 186q35 -8 45 -8q49 0 50 53q0 53 -54 53h-96v203h96q102 0 174 -75t72 -181q0 -98 -69.5 -177t-165.5 -79q-37 0 -125 25z" />
<glyph unicode="&#xb9;" horiz-adv-x="1193" d="M315 1176v186l299 174h156v-1194h-301v834h-154z" />
<glyph unicode="&#xba;" horiz-adv-x="1193" d="M170 170v215h854v-215h-854zM170 807v422q0 125 85 216t208 91h268q123 0 208 -91t85 -216v-422q0 -125 -84 -216t-209 -91h-268q-123 0 -208 91t-85 216zM487 829q0 -115 111 -114q111 0 111 114v377q0 115 -111 115t-111 -115v-377z" />
<glyph unicode="&#xbb;" horiz-adv-x="1536" d="M213 -35v234l397 397l-397 399v234l631 -631zM702 -35v234l398 397l-398 399v234l631 -631z" />
<glyph unicode="&#xbc;" horiz-adv-x="2390" d="M170 1174v186l326 176h170v-1206h-330v844h-166zM662 0l516 1536h217l-516 -1536h-217zM1169 330v198l570 678h313v-661h166v-215h-166v-330h-328v330h-555zM1442 545h282v336z" />
<glyph unicode="&#xbd;" horiz-adv-x="2390" d="M170 1174v186l326 176h170v-1206h-330v844h-166zM662 0l516 1536h217l-516 -1536h-217zM1335 0v190q0 76 146 209l266 238q143 139 143 223v27q0 104 -112 104h-140q-104 0 -116 -129h-187q0 201 98.5 272.5t204.5 71.5h279q121 0 211 -81t90 -201v-64q0 -145 -297 -381 q-227 -180 -254 -264h551v-215h-883z" />
<glyph unicode="&#xbe;" horiz-adv-x="2729" d="M170 674h217q10 -129 115 -129h112q113 0 113 104v156q0 20 -29 65q-27 39 -84 39h-192v201l283 211h-535v215h887v-203l-285 -211q109 -6 197 -89t88 -191v-230q0 -121 -91.5 -201.5t-211.5 -80.5h-281q-104 0 -203.5 71.5t-99.5 272.5zM997 0l516 1536h222l-518 -1536 h-220zM1507 330v198l572 678h315v-661h166v-215h-166v-330h-330v330h-557zM1780 545h284v336z" />
<glyph unicode="&#xbf;" d="M170 354q0 145 76 232q47 51 145 98q84 41 92 66q12 35 13 100v190h372v-190q0 -221 -247 -371q-76 -45 -76 -125q0 -57 41 -98t96 -41h164q127 0 139 164h213q-43 -379 -352 -379h-326q-143 0 -246.5 104.5t-103.5 249.5zM496 1157v379h372v-379h-372z" />
<glyph unicode="&#xc0;" d="M170 0v1190q0 150 103.5 254t246.5 104h326q143 0 245.5 -105.5t102.5 -252.5v-1190h-373v666h-276v-666h-375zM481 2048h217l187 -383h-217zM545 883h276v307q0 59 -41 100t-98 41q-55 0 -96 -41t-41 -100v-307z" />
<glyph unicode="&#xc1;" d="M170 0v1190q0 150 103.5 254t246.5 104h326q143 0 245.5 -105.5t102.5 -252.5v-1190h-373v666h-276v-666h-375zM481 1665l187 383h217l-187 -383h-217zM545 883h276v307q0 59 -41 100t-98 41q-55 0 -96 -41t-41 -100v-307z" />
<glyph unicode="&#xc2;" d="M170 0v1190q0 150 103.5 254t246.5 104h326q143 0 245.5 -105.5t102.5 -252.5v-1190h-373v666h-276v-666h-375zM242 1597l456 467l455 -467h-201l-254 261l-254 -261h-202zM545 883h276v307q0 59 -41 100t-98 41q-55 0 -96 -41t-41 -100v-307z" />
<glyph unicode="&#xc3;" d="M170 0v1188q0 147 103.5 252.5t246.5 105.5h326q143 0 245.5 -105.5t102.5 -252.5v-1188h-373v666h-276v-666h-375zM301 1595q37 317 289 318q72 0 154.5 -66.5t105.5 -66.5q92 0 108 133h179q-37 -318 -287 -318q-76 0 -157 67t-103 67q-94 0 -109 -134h-180zM545 881 h276v307q0 59 -41 100t-98 41q-55 0 -96 -41t-41 -100v-307z" />
<glyph unicode="&#xc4;" d="M170 0v1188q0 150 103.5 254t246.5 104h326q143 0 245.5 -105.5t102.5 -252.5v-1188h-373v666h-276v-666h-375zM334 1661v256h239v-256h-239zM545 881h276v307q0 59 -41 100t-98 41q-55 0 -96 -41t-41 -100v-307zM793 1661v256h239v-256h-239z" />
<glyph unicode="&#xc5;" d="M170 0v1190q0 236 209 328q-45 92 -45 170q0 150 101.5 255t246.5 105t247.5 -105.5t102.5 -254.5q0 -82 -45 -170q207 -90 207 -328v-1190h-373v666h-276v-666h-375zM545 883h276v307q0 59 -41 100t-98 41q-55 0 -96 -41t-41 -100v-307zM545 1690q0 -59 41 -100.5 t96 -41.5q57 0 98 41t41 101q0 57 -40 99t-99 42q-57 0 -97 -41t-40 -100z" />
<glyph unicode="&#xc6;" horiz-adv-x="1878" d="M170 0v1182q0 145 104.5 249.5t251.5 104.5h1180v-215h-494v-447h330v-212h-330v-447h494v-215h-875v662h-280v-662h-381zM551 874h280v308q0 57 -40.5 98t-98.5 41q-59 0 -100 -41t-41 -98v-308z" />
<glyph unicode="&#xc7;" d="M170 346v832q0 150 102.5 254t247.5 104h326q330 0 350 -383h-211q-18 166 -139 166h-164q-55 0 -96 -41t-41 -100v-832q0 -59 41 -100t96 -41h164q123 0 139 166h211q-23 -383 -350 -383h-8q113 -84 112 -226q0 -113 -73.5 -193.5t-184.5 -80.5q-39 0 -135 27l80 200 q41 -10 49 -10q55 0 55 57t-59 58h-104v168h-58q-143 0 -246.5 104.5t-103.5 253.5z" />
<glyph unicode="&#xc8;" horiz-adv-x="1193" d="M170 0v1548h854v-217h-483v-448h323v-217h-323v-449h483v-217h-854zM317 2048h215l185 -383h-215z" />
<glyph unicode="&#xc9;" horiz-adv-x="1193" d="M170 0v1548h854v-217h-483v-448h323v-217h-323v-449h483v-217h-854zM477 1665l187 383h215l-187 -383h-215z" />
<glyph unicode="&#xca;" horiz-adv-x="1193" d="M150 1599l450 465l451 -465h-199l-252 259l-252 -259h-198zM170 0v1548h854v-217h-483v-448h323v-217h-323v-449h483v-217h-854z" />
<glyph unicode="&#xcb;" horiz-adv-x="1193" d="M170 0v1546h854v-217h-483v-448h323v-215h-323v-449h483v-217h-854zM238 1661v256h237v-256h-237zM692 1661v256h238v-256h-238z" />
<glyph unicode="&#xcc;" horiz-adv-x="1024" d="M328 2048h198l170 -383h-198zM342 0v1548h340v-1548h-340z" />
<glyph unicode="&#xcd;" horiz-adv-x="1024" d="M328 1665l170 383h198l-170 -383h-198zM342 0v1548h340v-1548h-340z" />
<glyph unicode="&#xce;" horiz-adv-x="1024" d="M82 1599l448 465l451 -465h-199l-252 259l-249 -259h-199zM328 0v1548h370v-1548h-370z" />
<glyph unicode="&#xcf;" horiz-adv-x="1024" d="M170 1661v256h236v-256h-236zM330 0v1546h364v-1546h-364zM618 1661v256h236v-256h-236z" />
<glyph unicode="&#xd0;" d="M0 662v212h164v662h680q145 0 247.5 -104.5t102.5 -249.5v-828q0 -145 -102.5 -249.5t-247.5 -104.5h-680v662h-164zM541 215h139q57 0 98 41t41 98v828q0 57 -41 98t-98 41h-139v-447h164v-212h-164v-447z" />
<glyph unicode="&#xd1;" horiz-adv-x="1536" d="M170 0v1546h111l872 -801v801h213v-1546h-109l-872 799v-799h-215zM303 1595q37 317 289 318q74 0 156.5 -66.5t105.5 -66.5q94 0 109 133h180q-35 -318 -289 -318q-76 0 -157 67t-105 67q-92 0 -109 -134h-180z" />
<glyph unicode="&#xd2;" d="M170 358v832q0 150 103.5 254t246.5 104h326q143 0 245.5 -105.5t102.5 -252.5v-832q0 -147 -101.5 -252.5t-246.5 -105.5h-326q-143 0 -246.5 104.5t-103.5 253.5zM481 2048h217l187 -383h-217zM545 358q0 -59 41 -100t96 -41q57 0 98 41t41 100v832q0 59 -41 100 t-98 41q-55 0 -96 -41t-41 -100v-832z" />
<glyph unicode="&#xd3;" d="M170 358v832q0 150 103.5 254t246.5 104h326q143 0 245.5 -105.5t102.5 -252.5v-832q0 -147 -101.5 -252.5t-246.5 -105.5h-326q-143 0 -246.5 104.5t-103.5 253.5zM481 1665l187 383h217l-187 -383h-217zM545 358q0 -59 41 -100t96 -41q57 0 98 41t41 100v832 q0 59 -41 100t-98 41q-55 0 -96 -41t-41 -100v-832z" />
<glyph unicode="&#xd4;" d="M170 358v832q0 150 103.5 254t246.5 104h326q143 0 245.5 -105.5t102.5 -252.5v-832q0 -147 -101.5 -252.5t-246.5 -105.5h-326q-143 0 -246.5 104.5t-103.5 253.5zM242 1597l456 467l455 -467h-201l-254 261l-254 -261h-202zM545 358q0 -59 41 -100t96 -41q57 0 98 41 t41 100v832q0 59 -41 100t-98 41q-55 0 -96 -41t-41 -100v-832z" />
<glyph unicode="&#xd5;" d="M170 356v832q0 147 103.5 252.5t246.5 105.5h326q143 0 245.5 -105.5t102.5 -252.5v-832q0 -145 -101.5 -250.5t-246.5 -105.5h-326q-143 0 -246.5 104.5t-103.5 251.5zM301 1595q37 317 289 318q72 0 154.5 -66.5t105.5 -66.5q92 0 108 133h179q-37 -318 -287 -318 q-76 0 -157 67t-103 67q-94 0 -109 -134h-180zM545 356q0 -57 41 -98t96 -41q57 0 98 41t41 98v832q0 59 -41 100t-98 41q-55 0 -96 -41t-41 -100v-832z" />
<glyph unicode="&#xd6;" d="M170 356v832q0 150 103.5 254t246.5 104h326q143 0 245.5 -105.5t102.5 -252.5v-832q0 -145 -101.5 -250.5t-246.5 -105.5h-326q-143 0 -246.5 104.5t-103.5 251.5zM334 1661v256h239v-256h-239zM545 356q0 -57 41 -98t96 -41q57 0 98 41t41 98v832q0 59 -41 100t-98 41 q-55 0 -96 -41t-41 -100v-832zM793 1661v256h239v-256h-239z" />
<glyph unicode="&#xd7;" d="M162 225l370 373l-370 371l149 149l371 -370l373 370l149 -149l-370 -371l370 -373l-149 -149l-373 370l-371 -370z" />
<glyph unicode="&#xd8;" d="M154 0l82 150q-66 106 -66 204v828q0 145 103.5 249.5t246.5 104.5h326q68 0 133 -27l14 27h219l-82 -152q63 -104 64 -202v-828q0 -145 -101.5 -249.5t-246.5 -104.5h-326q-66 0 -133 27l-14 -27h-219zM545 715l272 497q-31 109 -135 109q-55 0 -96 -41t-41 -98v-467z M549 324q25 -109 133 -109q57 0 98 41t41 98v467z" />
<glyph unicode="&#xd9;" d="M170 358v1190h375v-1190q0 -59 41 -100t96 -41q57 0 98 41t41 100v1190h373v-1190q0 -147 -101.5 -252.5t-246.5 -105.5h-326q-143 0 -246.5 104.5t-103.5 253.5zM481 2048h217l187 -383h-217z" />
<glyph unicode="&#xda;" d="M170 358v1190h375v-1190q0 -59 41 -100t96 -41q57 0 98 41t41 100v1190h373v-1190q0 -147 -101.5 -252.5t-246.5 -105.5h-326q-143 0 -246.5 104.5t-103.5 253.5zM481 1665l187 383h217l-187 -383h-217z" />
<glyph unicode="&#xdb;" d="M170 358v1190h375v-1190q0 -59 41 -100t96 -41q57 0 98 41t41 100v1190h373v-1190q0 -147 -101.5 -252.5t-246.5 -105.5h-326q-143 0 -246.5 104.5t-103.5 253.5zM242 1597l456 467l455 -467h-201l-254 261l-254 -261h-202z" />
<glyph unicode="&#xdc;" d="M170 356v1190h375v-1190q0 -57 41 -98t96 -41q57 0 98 41t41 98v1190h373v-1190q0 -145 -101.5 -250.5t-246.5 -105.5h-326q-143 0 -246.5 104.5t-103.5 251.5zM334 1661v256h239v-256h-239zM793 1661v256h239v-256h-239z" />
<glyph unicode="&#xdd;" d="M170 1024v524h375v-524q0 -59 41 -100t96 -41q57 0 98 41t41 100v524h373v-524q0 -307 -324 -354v-670h-374v670q-326 47 -326 354zM481 1665l187 383h217l-187 -383h-217z" />
<glyph unicode="&#xde;" d="M170 0v1536h375v-330h301q143 0 245.5 -104.5t102.5 -251.5v-164q0 -145 -101.5 -250.5t-246.5 -105.5h-301v-330h-375zM545 545h137q57 0 98 42t41 99v164q0 57 -41 99t-98 42h-137v-446z" />
<glyph unicode="&#xdf;" d="M170 1182q0 145 103.5 249.5t246.5 104.5h326q143 0 245.5 -104.5t102.5 -249.5q0 -248 -217 -328q96 -33 156.5 -130t60.5 -204v-166q0 -135 -106.5 -244.5t-241.5 -109.5h-187v215h37q27 0 64 20.5t47 43.5q14 31 14 75v248q0 74 -45 107.5t-80 33.5h-37v215h37 q33 0 79 36t46 104v84q0 57 -41 98t-98 41q-55 0 -96 -41t-41 -98v-1327h-373z" />
<glyph unicode="&#xe0;" d="M168 827q43 383 352 383h326q143 0 245.5 -105.5t102.5 -250.5v-854h-373v57q-49 -57 -139 -57h-162q-143 0 -246.5 104.5t-103.5 251.5t103.5 252t246.5 105h301v141q0 57 -41 98t-98 41h-162q-123 0 -139 -166h-213zM481 1706h217l187 -381h-217zM545 356q0 -57 40 -99 t97 -42t98 41t41 100v142h-139q-55 0 -96 -41t-41 -101z" />
<glyph unicode="&#xe1;" d="M168 827q43 383 352 383h326q143 0 245.5 -105.5t102.5 -250.5v-854h-373v57q-49 -57 -139 -57h-162q-143 0 -246.5 104.5t-103.5 251.5t103.5 252t246.5 105h301v141q0 57 -41 98t-98 41h-162q-123 0 -139 -166h-213zM481 1325l187 381h217l-187 -381h-217zM545 356 q0 -57 40 -99t97 -42t98 41t41 100v142h-139q-55 0 -96 -41t-41 -101z" />
<glyph unicode="&#xe2;" d="M168 827q43 383 352 383h326q143 0 245.5 -105.5t102.5 -250.5v-854h-373v57q-49 -57 -139 -57h-162q-143 0 -246.5 104.5t-103.5 251.5t103.5 252t246.5 105h301v141q0 57 -41 98t-98 41h-162q-123 0 -139 -166h-213zM233 1257l455 463l455 -463h-201l-254 259 l-254 -259h-201zM545 356q0 -57 40 -99t97 -42t98 41t41 100v142h-139q-55 0 -96 -41t-41 -101z" />
<glyph unicode="&#xe3;" d="M168 825q43 381 352 381h326q143 0 245.5 -104.5t102.5 -251.5v-850h-373v57q-49 -57 -139 -57h-162q-143 0 -246.5 104.5t-103.5 249.5q0 147 103.5 252t246.5 105h301v139q0 59 -41 100t-98 41h-162q-123 0 -139 -166h-213zM281 1251q35 315 286 316q72 0 155 -66.5 t105 -66.5q92 0 109 133h178q-35 -316 -287 -316q-76 0 -156.5 66.5t-103.5 66.5q-92 0 -108 -133h-178zM545 356q0 -59 40 -100t97 -41t98 41t41 98v142h-139q-55 0 -96 -41t-41 -99z" />
<glyph unicode="&#xe4;" d="M168 825q43 381 352 381h326q143 0 245.5 -104.5t102.5 -251.5v-850h-373v57q-49 -57 -139 -57h-162q-143 0 -246.5 104.5t-103.5 249.5q0 147 103.5 252t246.5 105h301v139q0 59 -41 100t-98 41h-162q-123 0 -139 -166h-213zM334 1323v254h239v-254h-239zM545 356 q0 -59 40 -100t97 -41t98 41t41 98v142h-139q-55 0 -96 -41t-41 -99zM793 1323v254h239v-254h-239z" />
<glyph unicode="&#xe5;" d="M168 827q43 383 352 383h326q143 0 245.5 -105.5t102.5 -252.5v-852h-373v57q-49 -57 -139 -57h-162q-143 0 -246.5 104.5t-103.5 251.5t103.5 252t246.5 105h301v139q0 59 -41 100t-98 41h-162q-123 0 -139 -166h-213zM248 1683h201l253 -260l254 260h203l-457 -464z M545 356q0 -57 40 -99t97 -42t98 41t41 100v142h-139q-55 0 -96 -41t-41 -101z" />
<glyph unicode="&#xe6;" horiz-adv-x="2048" d="M168 817q43 377 358 377h332q82 0 166 -41q84 41 166 41h332q147 0 251.5 -103.5t104.5 -248.5v-350h-664v-140q0 -57 42 -98t100 -41h166q141 0 141 164h217q-43 -377 -358 -377h-332q-82 0 -166 41q-84 -41 -166 -41h-332q-147 0 -251.5 103.5t-104.5 248.5t105.5 249 t250.5 104h308v137q0 57 -41 98t-101 41h-166q-123 0 -141 -164h-217zM551 352q0 -57 42 -98t99 -41q59 0 100.5 41t41.5 98v140h-142q-57 0 -99 -41t-42 -99zM1214 705h283v137q0 57 -42 98t-99 41t-99.5 -41t-42.5 -98v-137z" />
<glyph unicode="&#xe7;" horiz-adv-x="1193" d="M170 342v496q0 147 102.5 251.5t243.5 104.5h162q328 0 348 -381h-209q-18 166 -139 166q-55 0 -96 -41t-41 -100v-496q0 -59 41 -100t96 -41q121 0 139 166h209q-22 -381 -348 -381h-80v49q109 0 187.5 -81t78.5 -194t-73.5 -192.5t-182.5 -79.5q-39 0 -135 27l80 198 q39 -10 47 -10q53 0 53 57q0 59 -55 60h-104v168q-324 49 -324 354z" />
<glyph unicode="&#xe8;" d="M170 356v498q0 145 103.5 250.5t246.5 105.5h326q143 0 245.5 -105.5t102.5 -250.5v-356h-649v-142q0 -59 41 -100t96 -41h164q137 0 137 166h215q-43 -381 -352 -381h-326q-143 0 -246.5 104.5t-103.5 251.5zM481 1706h217l187 -381h-217zM545 713h276v141q0 57 -41 98 t-98 41q-55 0 -96 -41t-41 -98v-141z" />
<glyph unicode="&#xe9;" d="M170 356v498q0 145 103.5 250.5t246.5 105.5h326q143 0 245.5 -105.5t102.5 -250.5v-356h-649v-142q0 -59 41 -100t96 -41h164q137 0 137 166h215q-43 -381 -352 -381h-326q-143 0 -246.5 104.5t-103.5 251.5zM481 1325l187 381h217l-187 -381h-217zM545 713h276v141 q0 57 -41 98t-98 41q-55 0 -96 -41t-41 -98v-141z" />
<glyph unicode="&#xea;" d="M170 356v496q0 147 103.5 252.5t246.5 105.5h326q143 0 245.5 -105.5t102.5 -252.5v-354h-649v-142q0 -59 41 -100t96 -41h164q137 0 137 166h215q-43 -381 -352 -381h-326q-143 0 -246.5 104.5t-103.5 251.5zM240 1243l454 463l455 -463h-201l-254 258l-254 -258h-200z M545 713h276v139q0 59 -41 100t-98 41q-55 0 -96 -41t-41 -100v-139z" />
<glyph unicode="&#xeb;" d="M170 354v496q0 147 103.5 251.5t246.5 104.5h326q143 0 245.5 -104.5t102.5 -251.5v-354h-649v-142q0 -57 41 -98t96 -41h164q137 0 137 164h215q-43 -379 -352 -379h-326q-143 0 -246.5 104.5t-103.5 249.5zM334 1323v254h239v-254h-239zM545 711h276v139q0 59 -41 100 t-98 41q-55 0 -96 -41t-41 -100v-139zM793 1323v254h239v-254h-239z" />
<glyph unicode="&#xec;" horiz-adv-x="681" d="M158 1706h198l172 -381h-198zM170 0v1210h342v-1210h-342z" />
<glyph unicode="&#xed;" horiz-adv-x="681" d="M158 1325l172 381h198l-172 -381h-198zM170 0v1210h342v-1210h-342z" />
<glyph unicode="&#xee;" horiz-adv-x="681" d="M-102 1253l450 465l451 -465h-199l-252 260l-252 -260h-198zM158 0v1210h368v-1210h-368z" />
<glyph unicode="&#xef;" horiz-adv-x="681" d="M0 1323v254h236v-254h-236zM160 0v1206h364v-1206h-364zM449 1323v254h233v-254h-233z" />
<glyph unicode="&#xf0;" d="M0 354v332q0 145 102.5 249.5t245.5 104.5h297q-18 109 -67 172l-56 -55h-231l147 150q-47 14 -98 14h-176v215h104q168 0 334 -66l64 66h231l-152 -154q279 -250 279 -696v-332q0 -145 -102.5 -249.5t-245.5 -104.5h-328q-143 0 -245.5 104.5t-102.5 249.5zM373 354 q0 -57 41 -98t98 -41t98 41t41 98v332q0 57 -41 98t-98 41t-98 -41t-41 -98v-332z" />
<glyph unicode="&#xf1;" d="M170 0v1206h375v-57q49 57 137 57h164q143 0 245.5 -104.5t102.5 -251.5v-850h-373v850q0 59 -41 100t-98 41q-55 0 -96 -41t-41 -100v-850h-375zM281 1251q35 315 286 316q72 0 155 -66.5t105 -66.5q92 0 109 133h178q-35 -316 -287 -316q-76 0 -156.5 66.5t-103.5 66.5 q-92 0 -108 -133h-178z" />
<glyph unicode="&#xf2;" d="M170 356v498q0 145 103.5 250.5t246.5 105.5h326q143 0 245.5 -105.5t102.5 -250.5v-498q0 -145 -101.5 -250.5t-246.5 -105.5h-326q-143 0 -246.5 104.5t-103.5 251.5zM481 1706h217l187 -381h-217zM545 356q0 -59 41 -100t96 -41q57 0 98 41t41 100v498q0 57 -41 98 t-98 41q-55 0 -96 -41t-41 -98v-498z" />
<glyph unicode="&#xf3;" d="M170 356v498q0 145 103.5 250.5t246.5 105.5h326q143 0 245.5 -105.5t102.5 -250.5v-498q0 -145 -101.5 -250.5t-246.5 -105.5h-326q-143 0 -246.5 104.5t-103.5 251.5zM481 1325l187 381h217l-187 -381h-217zM545 356q0 -59 41 -100t96 -41q57 0 98 41t41 100v498 q0 57 -41 98t-98 41q-55 0 -96 -41t-41 -98v-498z" />
<glyph unicode="&#xf4;" d="M170 356v496q0 147 103.5 252.5t246.5 105.5h326q143 0 245.5 -105.5t102.5 -252.5v-496q0 -145 -101.5 -250.5t-246.5 -105.5h-326q-143 0 -246.5 104.5t-103.5 251.5zM240 1243l454 463l455 -463h-201l-254 258l-254 -258h-200zM545 356q0 -59 41 -100t96 -41 q57 0 98 41t41 100v496q0 59 -41 100t-98 41q-55 0 -96 -41t-41 -100v-496z" />
<glyph unicode="&#xf5;" d="M170 354v496q0 147 103.5 251.5t246.5 104.5h326q143 0 245.5 -104.5t102.5 -251.5v-496q0 -145 -101.5 -249.5t-246.5 -104.5h-326q-143 0 -246.5 104.5t-103.5 249.5zM281 1251q35 315 286 316q72 0 155 -66.5t105 -66.5q92 0 109 133h178q-35 -316 -287 -316 q-76 0 -156.5 66.5t-103.5 66.5q-92 0 -108 -133h-178zM545 354q0 -57 41 -98t96 -41q57 0 98 41t41 98v496q0 59 -41 100t-98 41q-55 0 -96 -41t-41 -100v-496z" />
<glyph unicode="&#xf6;" d="M170 354v496q0 147 103.5 251.5t246.5 104.5h326q143 0 245.5 -104.5t102.5 -251.5v-496q0 -145 -101.5 -249.5t-246.5 -104.5h-326q-143 0 -246.5 104.5t-103.5 249.5zM334 1323v254h239v-254h-239zM545 354q0 -57 41 -98t96 -41q57 0 98 41t41 98v496q0 59 -41 100 t-98 41q-55 0 -96 -41t-41 -100v-496zM793 1323v254h239v-254h-239z" />
<glyph unicode="&#xf7;" horiz-adv-x="1193" d="M170 494v208h854v-208h-854zM494 170v209h208v-209h-208zM494 815v209h208v-209h-208z" />
<glyph unicode="&#xf8;" d="M147 0l99 137q-76 111 -76 215v490q0 145 103.5 248.5t246.5 103.5h326q66 0 131 -25l18 25h224l-99 -137q74 -111 74 -215v-490q0 -145 -102.5 -248.5t-245.5 -103.5h-326q-66 0 -131 27l-18 -27h-224zM545 559l254 359q-47 63 -117 63q-55 0 -96 -41t-41 -98v-283z M567 276q47 -63 115 -63q57 0 98 41t41 98v283z" />
<glyph unicode="&#xf9;" d="M170 356v854h375v-854q0 -59 41 -100t96 -41q57 0 98 41t41 100v854h373v-1210h-373v57q-49 -57 -139 -57h-162q-143 0 -246.5 104.5t-103.5 251.5zM481 1706h217l187 -381h-217z" />
<glyph unicode="&#xfa;" d="M170 356v854h375v-854q0 -59 41 -100t96 -41q57 0 98 41t41 100v854h373v-1210h-373v57q-49 -57 -139 -57h-162q-143 0 -246.5 104.5t-103.5 251.5zM522 1325l187 381h217l-187 -381h-217z" />
<glyph unicode="&#xfb;" d="M170 356v852h375v-852q0 -59 41 -100t96 -41q57 0 98 41t41 100v852h373v-1208h-373v57q-49 -57 -139 -57h-162q-143 0 -246.5 104.5t-103.5 251.5zM328 1268l374 383l377 -383h-174l-200 205l-203 -205h-174z" />
<glyph unicode="&#xfc;" d="M170 354v852h375v-852q0 -57 41 -98t96 -41q57 0 98 41t41 98v852h373v-1206h-373v57q-49 -57 -139 -57h-162q-143 0 -246.5 104.5t-103.5 249.5zM334 1323v254h239v-254h-239zM793 1323v254h239v-254h-239z" />
<glyph unicode="&#xfd;" d="M168 -129h213q12 -166 139 -166h162q57 0 98 41t41 100v201q-49 -59 -139 -59h-162q-143 0 -246.5 105.5t-103.5 252.5v860h375v-860q0 -57 41 -99t96 -42q57 0 98 42t41 99v860h373v-1360q0 -145 -101.5 -251.5t-246.5 -106.5h-326q-309 0 -352 383zM481 1323l187 383 h217l-187 -383h-217z" />
<glyph unicode="&#xfe;" d="M170 -342v1878h375v-391q49 59 137 59h164q143 0 245.5 -105.5t102.5 -252.5v-498q0 -145 -101.5 -250.5t-246.5 -105.5h-301v-334h-375zM545 207h137q57 0 98 41t41 100v498q0 59 -41 100t-98 41q-55 0 -96 -41t-41 -100v-639z" />
<glyph unicode="&#xff;" d="M168 -129h213q12 -166 139 -166h162q57 0 98 41t41 100v201q-49 -59 -139 -59h-162q-143 0 -246.5 105.5t-103.5 252.5v858h375v-858q0 -59 41 -100t96 -41q57 0 98 41t41 100v858h373v-1358q0 -145 -101.5 -251.5t-246.5 -106.5h-326q-309 0 -352 383zM334 1321v256h239 v-256h-239zM793 1321v256h239v-256h-239z" />
<glyph unicode="&#x2000;" horiz-adv-x="1032" />
<glyph unicode="&#x2001;" horiz-adv-x="2064" />
<glyph unicode="&#x2002;" horiz-adv-x="1032" />
<glyph unicode="&#x2003;" horiz-adv-x="2064" />
<glyph unicode="&#x2004;" horiz-adv-x="688" />
<glyph unicode="&#x2005;" horiz-adv-x="516" />
<glyph unicode="&#x2006;" horiz-adv-x="344" />
<glyph unicode="&#x2007;" horiz-adv-x="344" />
<glyph unicode="&#x2008;" horiz-adv-x="258" />
<glyph unicode="&#x2009;" horiz-adv-x="412" />
<glyph unicode="&#x200a;" horiz-adv-x="114" />
<glyph unicode="&#x2010;" horiz-adv-x="1193" d="M170 512v170h854v-170h-854z" />
<glyph unicode="&#x2011;" horiz-adv-x="1193" d="M170 512v170h854v-170h-854z" />
<glyph unicode="&#x2012;" horiz-adv-x="1193" d="M170 512v170h854v-170h-854z" />
<glyph unicode="&#x2013;" horiz-adv-x="1363" d="M170 512v170h1024v-170h-1024z" />
<glyph unicode="&#x2014;" horiz-adv-x="2387" d="M170 512v170h2048v-170h-2048z" />
<glyph unicode="&#x202f;" horiz-adv-x="412" />
<glyph unicode="&#x205f;" horiz-adv-x="516" />
<glyph unicode="&#xe000;" horiz-adv-x="1198" d="M0 0v1198h1198v-1198h-1198z" />
</font>
</defs>
</svg>
